<svg id="visual" viewBox="0 0 960 200" width="960" height="200" xmlns="http://www.w3.org/2000/svg" xmlns:xlink="http://www.w3.org/1999/xlink" version="1.1"><rect x="0" y="0" width="960" height="200" fill="#d6d6d6"></rect><path d="M0 162L8.8 161.2C17.7 160.3 35.3 158.7 53.2 145.8C71 133 89 109 106.8 101.2C124.7 93.3 142.3 101.7 160 98C177.7 94.3 195.3 78.7 213.2 73.2C231 67.7 249 72.3 266.8 87.5C284.7 102.7 302.3 128.3 320 139.2C337.7 150 355.3 146 373.2 146.5C391 147 409 152 426.8 155.2C444.7 158.3 462.3 159.7 480 145C497.7 130.3 515.3 99.7 533.2 94.5C551 89.3 569 109.7 586.8 118.3C604.7 127 622.3 124 640 111.5C657.7 99 675.3 77 693.2 76.2C711 75.3 729 95.7 746.8 112C764.7 128.3 782.3 140.7 800 133.5C817.7 126.3 835.3 99.7 853.2 97.2C871 94.7 889 116.3 906.8 127C924.7 137.7 942.3 137.3 951.2 137.2L960 137L960 201L951.2 201C942.3 201 924.7 201 906.8 201C889 201 871 201 853.2 201C835.3 201 817.7 201 800 201C782.3 201 764.7 201 746.8 201C729 201 711 201 693.2 201C675.3 201 657.7 201 640 201C622.3 201 604.7 201 586.8 201C569 201 551 201 533.2 201C515.3 201 497.7 201 480 201C462.3 201 444.7 201 426.8 201C409 201 391 201 373.2 201C355.3 201 337.7 201 320 201C302.3 201 284.7 201 266.8 201C249 201 231 201 213.2 201C195.3 201 177.7 201 160 201C142.3 201 124.7 201 106.8 201C89 201 71 201 53.2 201C35.3 201 17.7 201 8.8 201L0 201Z" fill="#000016" stroke-linecap="round" stroke-linejoin="miter"></path></svg>