<svg id="visual" viewBox="0 0 960 200" width="960" height="200" xmlns="http://www.w3.org/2000/svg" xmlns:xlink="http://www.w3.org/1999/xlink" version="1.1"><rect x="0" y="0" width="960" height="200" fill="#000016"></rect><path d="M0 82L14.5 82.7C29 83.3 58 84.7 87.2 86.8C116.3 89 145.7 92 174.8 97.8C204 103.7 233 112.3 262 108.8C291 105.3 320 89.7 349 96.3C378 103 407 132 436.2 135.8C465.3 139.7 494.7 118.3 523.8 104C553 89.7 582 82.3 611 82.3C640 82.3 669 89.7 698 89.2C727 88.7 756 80.3 785.2 76.2C814.3 72 843.7 72 872.8 77C902 82 931 92 945.5 97L960 102L960 201L945.5 201C931 201 902 201 872.8 201C843.7 201 814.3 201 785.2 201C756 201 727 201 698 201C669 201 640 201 611 201C582 201 553 201 523.8 201C494.7 201 465.3 201 436.2 201C407 201 378 201 349 201C320 201 291 201 262 201C233 201 204 201 174.8 201C145.7 201 116.3 201 87.2 201C58 201 29 201 14.5 201L0 201Z" fill="#d6d6d6" stroke-linecap="round" stroke-linejoin="miter"></path></svg>